<?xml version="1.0" standalone="no"?>
<!DOCTYPE svg PUBLIC "-//W3C//DTD SVG 20010904//EN"
 "http://www.w3.org/TR/2001/REC-SVG-20010904/DTD/svg10.dtd">
<svg version="1.0" xmlns="http://www.w3.org/2000/svg"
 width="132.000000pt" height="130.000000pt" viewBox="0 0 132.000000 130.000000"
 preserveAspectRatio="xMidYMid meet">

<g transform="translate(0.000000,130.000000) scale(0.100000,-0.100000)"
fill="#000000" stroke="none">
<path d="M47 1182 l-27 -28 0 -445 0 -446 27 -24 28 -24 -22 26 -23 25 0 445
0 446 23 21 c23 22 23 22 532 22 l509 0 25 -22 26 -23 -24 28 -24 27 -512 0
-511 0 -27 -28z"/>
<path d="M1141 708 c-1 -290 -5 -449 -11 -453 -6 -4 -7 -11 -4 -17 4 -6 2 -8
-4 -4 -6 3 -13 2 -17 -4 -4 -6 -184 -10 -518 -11 -282 -1 -502 -4 -491 -6 14
-3 24 -14 27 -33 4 -16 16 -38 28 -49 22 -21 30 -21 533 -21 386 1 515 4 527
13 38 29 39 45 39 495 l0 439 -26 27 c-15 14 -37 26 -50 26 -16 0 -24 7 -27
23 -2 12 -5 -179 -6 -425z"/>
<path d="M300 930 c0 -33 4 -60 10 -60 6 0 10 19 11 43 l0 42 15 -39 c8 -22
16 -42 19 -44 2 -3 13 15 24 39 l20 44 0 -42 c1 -24 6 -43 11 -43 6 0 10 27
10 60 0 73 -22 83 -41 20 -7 -22 -16 -40 -20 -40 -5 0 -14 18 -20 40 -19 62
-39 52 -39 -20z"/>
<path d="M452 948 c-30 -30 -1 -88 35 -72 16 7 15 8 -4 11 -31 6 -29 23 2 23
28 0 29 3 15 31 -12 22 -30 25 -48 7z m38 -18 c0 -5 -7 -10 -15 -10 -8 0 -15
5 -15 10 0 6 7 10 15 10 8 0 15 -4 15 -10z"/>
<path d="M520 913 c0 -24 5 -43 10 -43 6 0 10 16 10 35 0 24 5 35 15 35 10 0
15 -11 15 -35 0 -19 5 -35 10 -35 6 0 10 16 10 35 0 24 5 35 15 35 10 0 15
-11 15 -35 0 -19 5 -35 11 -35 6 0 9 17 7 43 l-3 42 -57 1 -58 0 0 -43z"/>
<path d="M672 948 c-24 -24 -8 -78 24 -78 17 0 44 28 44 45 0 17 -27 45 -44
45 -6 0 -17 -5 -24 -12z m43 -33 c0 -11 -8 -21 -17 -23 -14 -3 -18 3 -18 23 0
20 4 26 18 23 9 -2 17 -12 17 -23z"/>
<path d="M750 914 c0 -24 5 -44 10 -44 6 0 10 14 10 30 0 18 6 33 15 36 23 9
18 22 -10 22 -23 0 -25 -4 -25 -44z"/>
<path d="M810 956 c0 -2 7 -22 14 -44 9 -25 11 -44 5 -47 -5 -4 -9 -11 -9 -18
0 -19 26 15 38 48 5 17 13 38 17 48 4 9 3 17 -2 17 -5 0 -14 -12 -20 -27 l-10
-28 -8 28 c-4 15 -11 27 -16 27 -5 0 -9 -2 -9 -4z"/>
<path d="M401 691 c12 -34 25 -61 29 -61 4 0 17 27 28 60 12 33 17 60 12 60
-5 0 -15 -18 -21 -40 -15 -50 -25 -51 -36 -3 -4 20 -14 38 -20 40 -8 3 -5 -17
8 -56z"/>
<path d="M502 708 c-30 -30 -1 -88 35 -72 16 7 15 8 -4 11 -31 6 -29 23 2 23
28 0 29 3 15 31 -12 22 -30 25 -48 7z m38 -18 c0 -5 -7 -10 -15 -10 -8 0 -15
5 -15 10 0 6 7 10 15 10 8 0 15 -4 15 -10z"/>
<path d="M582 670 c1 -37 2 -39 5 -12 3 18 11 36 19 39 21 8 17 19 -6 19 -17
0 -20 -6 -18 -46z"/>
<path d="M642 708 c-13 -16 -5 -32 21 -41 10 -4 15 -12 12 -18 -5 -8 -10 -8
-18 0 -17 17 -31 13 -17 -4 15 -18 34 -19 48 -2 13 15 4 31 -21 40 -10 4 -15
12 -12 17 5 8 12 7 23 -2 13 -11 14 -11 10 2 -6 20 -32 24 -46 8z"/>
<path d="M726 705 c-20 -21 -20 -39 0 -59 18 -18 40 -21 49 -6 3 6 -3 10 -14
10 -12 0 -21 5 -21 10 0 6 9 10 21 10 15 0 20 5 17 22 -4 28 -30 34 -52 13z
m39 -15 c3 -5 -3 -10 -15 -10 -12 0 -18 5 -15 10 3 6 10 10 15 10 5 0 12 -4
15 -10z"/>
</g>
</svg>
